# xmcd
#
# Track frame offsets: 
#        150
#        15502
#        30738
#        46050
#        60740
#        78118
#        93056
#        109895
#        124458
#        140261
#        154027
#        169644
#
# Disc length: 2436 seconds
#
# Revision: 0
# Processed by: cddbd v1.5.2PL0 Copyright (c) Steve Scherf et al.
# Submitted via: ExactAudioCopy v1.0b1
#
DISCID=8a09820c
DTITLE=LAMBERT WILSON - LOIN
DYEAR=2007
DGENRE=Ballad
TTITLE0=Attaches
TTITLE1=Trois c'est trop
TTITLE2=D'avril à mai
TTITLE3=Nous deux
TTITLE4=Enfants de la balle
TTITLE5=Retouches
TTITLE6=Loin
TTITLE7=Image fantôme
TTITLE8=Depuis que tu pars
TTITLE9=L'attente
TTITLE10=Trop tard
TTITLE11=Comme une envie
EXTD=
EXTT0=
EXTT1=
EXTT2=
EXTT3=
EXTT4=
EXTT5=
EXTT6=
EXTT7=
EXTT8=
EXTT9=
EXTT10=
EXTT11=
PLAYORDER=
